<?xml version="1.0" encoding="UTF-8"?><svg id="Layer_1" xmlns="http://www.w3.org/2000/svg" xmlns:xlink="http://www.w3.org/1999/xlink" viewBox="0 0 185 28"><defs><style>.cls-1{fill:url(#linear-gradient-2);}.cls-2{fill:url(#linear-gradient-6);}.cls-3{fill:url(#linear-gradient-5);}.cls-4{fill:url(#linear-gradient-3);}.cls-5{fill:url(#linear-gradient);}.cls-6{fill:url(#linear-gradient-4);}</style><linearGradient id="linear-gradient" x1=".68" y1="14" x2="184.32" y2="14" gradientUnits="userSpaceOnUse"><stop offset="0" stop-color="#080608" stop-opacity="0"/><stop offset=".2" stop-color="#080608" stop-opacity=".3"/><stop offset=".8" stop-color="#080608" stop-opacity=".3"/><stop offset="1" stop-color="#080608" stop-opacity="0"/></linearGradient><linearGradient id="linear-gradient-2" x1="3.17" y1="13.6" x2="179.69" y2="13.6" gradientUnits="userSpaceOnUse"><stop offset="0" stop-color="#310eb3" stop-opacity="0"/><stop offset=".41" stop-color="#ff28fa"/><stop offset=".84" stop-color="#a41ddb"/><stop offset="1" stop-color="#310eb3" stop-opacity="0"/></linearGradient><linearGradient id="linear-gradient-3" x1="3.17" x2="179.69" xlink:href="#linear-gradient-2"/><linearGradient id="linear-gradient-4" x1="3.17" x2="179.69" xlink:href="#linear-gradient-2"/><linearGradient id="linear-gradient-5" y1="6.36" y2="6.36" xlink:href="#linear-gradient-2"/><linearGradient id="linear-gradient-6" y1="21.64" y2="21.64" xlink:href="#linear-gradient-2"/></defs><polygon class="cls-5" points=".68 11.88 39.1 11.88 50.29 2.84 134.71 2.84 145.9 11.88 184.32 11.88 184.32 16.12 145.9 16.12 134.71 25.16 50.29 25.16 39.1 16.12 .68 16.12 .68 11.88"/><path class="cls-1" d="m57.25,12.85v-4.5h3v9h4.5v-9h3v9h-1.5v1.5h-7.5v-1.5h-1.5v-4.5Z"/><path class="cls-1" d="m69.25,13.6v-5.25h9v1.5h1.5v4.5h-1.5v1.5h-6v3h-3v-5.25Zm7.5-1.5v-2.25h-4.5v4.5h4.5v-2.25Z"/><path class="cls-4" d="m82.75,13.6v-5.25h3v9h6v1.5h-9v-5.25Z"/><path class="cls-6" d="m94.75,9.1v-.75h7.5v1.5h1.5v7.5h-1.5v1.5h-7.5v-1.5h-1.5v-7.5h1.5v-.75Zm6,4.5v-3.75h-4.5v7.5h4.5v-3.75Z"/><path class="cls-1" d="m108.25,9.1v-.75h4.5v1.5h1.5v1.5h1.5v7.5h-3v-3h-4.5v3h-3v-7.5h1.5v-1.5h1.5v-.75Zm3,1.5v-.75h-1.5v1.5h-1.5v3h4.5v-3h-1.5v-.75Z"/><path class="cls-1" d="m117.25,13.6v-5.25h7.5v1.5h1.5v1.5h1.5v4.5h-1.5v1.5h-1.5v1.5h-7.5v-5.25Zm6-3v-.75h-3v7.5h3v-1.5h1.5v-4.5h-1.5v-.75Z"/><polygon class="cls-3" points="184.32 11.88 145.9 11.88 134.71 2.84 50.29 2.84 39.1 11.88 .68 11.88 .68 9.88 38.39 9.88 49.59 .84 135.41 .84 146.61 9.88 184.32 9.88 184.32 11.88"/><polygon class="cls-2" points="184.32 16.12 145.9 16.12 134.71 25.16 50.29 25.16 39.1 16.12 .68 16.12 .68 18.12 38.39 18.12 49.59 27.16 135.41 27.16 146.61 18.12 184.32 18.12 184.32 16.12"/></svg>